M48
; DRILL file {KiCad 9.0.7} date 2026-04-13T22:38:09-0400
; FORMAT={-:-/ absolute / metric / decimal}
; #@! TF.CreationDate,2026-04-13T22:38:09-04:00
; #@! TF.GenerationSoftware,Kicad,Pcbnew,9.0.7
; #@! TF.FileFunction,Plated,1,2,PTH
FMAT,2
METRIC
; #@! TA.AperFunction,Plated,PTH,ComponentDrill
T1C0.600
; #@! TA.AperFunction,Plated,PTH,ComponentDrill
T2C0.787
; #@! TA.AperFunction,Plated,PTH,ComponentDrill
T3C0.800
; #@! TA.AperFunction,Plated,PTH,ComponentDrill
T4C0.850
; #@! TA.AperFunction,Plated,PTH,ComponentDrill
T5C0.900
; #@! TA.AperFunction,Plated,PTH,ComponentDrill
T6C1.000
%
G90
G05
T1
X142.495Y-116.62
X142.495Y-123.17
X142.495Y-129.72
X142.495Y-136.27
X144.495Y-116.62
X144.495Y-123.17
X144.495Y-129.72
X144.495Y-136.27
T2
X150.0Y-71.92
X150.0Y-74.46
X150.0Y-77.0
X150.0Y-79.54
X150.0Y-82.08
X150.0Y-84.62
X150.0Y-87.16
X150.0Y-89.7
X157.62Y-71.92
X157.62Y-74.46
X157.62Y-77.0
X157.62Y-79.54
X157.62Y-82.08
X157.62Y-84.62
X157.62Y-87.16
X157.62Y-89.7
T3
X151.69Y-133.45
X151.69Y-137.5
X159.31Y-133.45
X159.31Y-137.5
X162.695Y-130.69
X162.695Y-133.23
X162.695Y-135.77
X162.695Y-138.31
X170.315Y-130.69
X170.315Y-133.23
X170.315Y-135.77
X170.315Y-138.31
T4
X163.92Y-123.0
X166.46Y-123.0
X169.0Y-123.0
T5
X130.23Y-85.0
X131.23Y-72.0
X132.77Y-85.0
X133.77Y-72.0
X135.0Y-96.5
X137.54Y-96.5
X138.73Y-61.5
X141.27Y-61.5
X147.73Y-56.0
X150.27Y-56.0
X159.96Y-56.5
X162.5Y-56.5
X169.46Y-61.5
X171.73Y-95.5
X172.0Y-61.5
X174.27Y-95.5
X174.96Y-72.0
X175.73Y-84.0
X177.5Y-72.0
X178.27Y-84.0
T6
X147.0Y-110.0
X164.0Y-108.46
X164.0Y-111.0
M30
